<svg xmlns="http://www.w3.org/2000/svg" width="512" height="512" viewBox="0 0 512 512" version="1.1">
	<path d="M 217.591 3.250 C 214.536 5.977, 193.975 57.039, 193.215 63.788 L 192.719 68.182 202.401 77.901 L 212.083 87.619 208.575 95.059 C 206.498 99.464, 204.536 105.739, 203.765 110.439 L 202.462 118.379 197.981 119.531 C 187.712 122.171, 179.242 128.521, 172.853 138.370 C 170.759 141.598, 168.759 145.765, 168.410 147.631 C 168.060 149.496, 167.457 151.218, 167.070 151.457 C 166.683 151.696, 159.768 145.278, 151.704 137.196 L 137.041 122.500 126.579 80 C 117.249 42.103, 115.834 37.257, 113.511 35.257 C 109.755 32.024, 106.369 31.454, 102.339 33.375 C 100.081 34.452, 98.362 36.282, 97.363 38.674 C 95.869 42.249, 96.077 43.292, 107.057 87.413 L 118.277 132.500 140.290 154.681 L 162.303 176.861 161.154 185.681 C 160.522 190.531, 159.518 205.073, 158.924 217.996 C 158.329 230.918, 157.739 241.594, 157.614 241.719 C 157.489 241.845, 148.412 240.357, 137.443 238.414 C 115.885 234.595, 113.079 234.656, 109.862 239.008 C 106.835 243.104, 54 370.947, 54 374.176 C 54 381.727, 65.525 386.304, 70.403 380.690 C 73.483 377.144, 78.627 365.457, 101.513 310 C 113.429 281.125, 123.342 257.334, 123.542 257.131 C 123.984 256.681, 156.192 261.858, 156.813 262.480 C 157.057 262.723, 156.479 279.436, 155.528 299.619 C 153.907 334.050, 153.991 344.126, 155.975 353.257 C 156.704 356.614, 156.562 357.068, 154.645 357.520 C 153.465 357.798, 145.750 359.377, 137.500 361.028 C 120.051 364.521, 120.462 364.208, 116.604 376.947 C 112.924 389.098, 86 498.772, 86 501.611 C 86 502.907, 87.304 505.428, 88.898 507.211 C 91.296 509.895, 92.520 510.455, 96 510.455 C 104.302 510.455, 103.806 511.791, 120.961 443.157 C 134.775 387.886, 136.458 381.928, 138.376 381.496 C 149.179 379.064, 159.776 377, 161.453 377.002 C 162.930 377.004, 164.334 378.606, 166.495 382.752 C 178.627 406.034, 201.440 424.395, 228.500 432.658 C 236.930 435.232, 238.671 435.406, 256 435.406 C 273.370 435.406, 275.048 435.238, 283.468 432.644 C 299.893 427.586, 315.261 418.727, 326.833 407.648 C 332.607 402.120, 341.799 389.864, 345.505 382.752 C 347.666 378.606, 349.070 377.004, 350.547 377.002 C 352.225 377, 362.884 379.077, 373.640 381.501 C 375.583 381.939, 377.176 387.650, 390.992 443.741 C 404.980 500.535, 406.436 505.739, 409.098 508.477 C 413.311 512.810, 419.092 512.700, 423.102 508.211 C 425.061 506.019, 426 503.897, 426 501.662 C 426 498.490, 404.671 411.293, 397.370 384.622 C 393.110 369.056, 391.475 365.434, 388.091 364.057 C 386.075 363.237, 357.081 357, 355.285 357 C 355.063 357, 355.105 356.639, 355.377 356.198 C 355.650 355.758, 356.398 351.446, 357.041 346.617 C 357.980 339.562, 357.871 330.478, 356.487 300.369 C 355.540 279.762, 354.986 262.680, 355.257 262.410 C 355.855 261.812, 383.653 257.023, 386.605 257.010 C 388.445 257.001, 391.383 263.500, 409.991 308.750 C 432.449 363.364, 438.494 377.123, 441.596 380.690 C 446.481 386.308, 458 381.727, 458 374.166 C 458 370.686, 404.182 240.964, 401.517 238.018 C 398.566 234.758, 394.425 234.802, 374 238.310 L 354.500 241.660 353.869 238.080 C 353.522 236.111, 352.914 225.500, 352.518 214.500 C 352.122 203.500, 351.221 190.675, 350.515 186 L 349.232 177.500 371.005 155.500 C 391.385 134.908, 392.878 133.148, 394.344 128 C 398.789 112.387, 415 45.211, 415 42.405 C 415 38.340, 411.014 33.382, 407.046 32.510 C 403.596 31.752, 398.656 34.012, 396.640 37.271 C 395.881 38.497, 390.688 58.194, 385.100 81.043 L 374.939 122.586 360.013 137.487 C 347.469 150.010, 344.984 152.078, 344.445 150.444 C 338.911 133.657, 328.731 123.313, 314.019 119.531 L 309.538 118.379 308.235 110.439 C 307.464 105.739, 305.502 99.464, 303.425 95.059 L 299.917 87.619 309.459 78.041 C 318.323 69.144, 319 68.181, 319 64.470 C 319 58.873, 297.914 6.372, 294.412 3.250 C 288.603 -1.930, 278 2.424, 278 9.989 C 278 11.717, 282.275 23.706, 287.500 36.630 C 292.725 49.554, 297 60.677, 297 61.348 C 297 62.019, 294.546 64.992, 291.547 67.954 L 286.094 73.339 279.297 70.248 C 269.779 65.920, 265.735 65.011, 256 65.011 C 246.265 65.011, 242.221 65.920, 232.703 70.248 L 225.906 73.339 220.453 67.954 C 217.454 64.992, 215 62.094, 215 61.514 C 215 60.933, 219.275 49.783, 224.500 36.735 C 229.725 23.687, 234 11.624, 234 9.929 C 234 2.423, 223.366 -1.905, 217.591 3.250 M 247 85.877 C 234.025 90.139, 224 102.474, 224 114.178 L 224 118 256 118 L 288 118 288 114.178 C 288 104.565, 280.444 93.311, 270.608 88.274 C 266.612 86.228, 263.758 85.593, 257.500 85.357 C 253.100 85.192, 248.375 85.426, 247 85.877 M 201.239 139.335 C 196.711 140.977, 191.323 145.474, 189.378 149.235 C 188.011 151.879, 183 176.620, 183 180.726 C 183 181.746, 197.548 182, 256 182 C 320.576 182, 329 181.825, 329 180.483 C 329 176.693, 324.836 153.543, 323.640 150.688 C 321.821 146.341, 314.964 140.361, 310.321 139.072 C 304.728 137.519, 205.587 137.758, 201.239 139.335 M 180.585 209.250 C 179.486 222.841, 174.857 323.463, 174.822 334.500 C 174.754 356.429, 182.160 375.558, 196.774 391.194 C 207.675 402.857, 225.569 412.386, 242.250 415.411 L 246 416.091 246 337.038 L 246 257.986 231.997 229.993 L 217.993 202 199.582 202 L 181.171 202 180.585 209.250 M 241 202.491 C 241 203.497, 255.489 232, 256 232 C 256.511 232, 271 203.497, 271 202.491 C 271 202.221, 264.250 202, 256 202 C 247.750 202, 241 202.221, 241 202.491 M 280.226 230.363 L 266 258.725 266 337.338 L 266 415.950 269.250 415.396 C 297.909 410.509, 322.138 390.441, 331.877 363.525 C 337.588 347.742, 337.672 345.162, 334.658 277.375 C 333.169 243.894, 331.685 213.238, 331.358 209.250 L 330.765 202 312.609 202 L 294.452 202 280.226 230.363" stroke="none" fill="#000000" fill-rule="evenodd"/>
</svg>